<svg width="40" height="32" viewBox="0 0 40 32" fill="none" xmlns="http://www.w3.org/2000/svg">
<path id="Vector" d="M13.2199 21.8125C20.1767 21.8125 25.8137 17.0414 25.8137 11.1562C25.8137 5.27109 20.1767 0.5 13.2199 0.5C6.26306 0.5 0.626151 5.27109 0.626151 11.1562C0.626151 13.4934 1.51619 15.6549 3.02381 17.4168C2.81189 17.9859 2.49705 18.4885 2.16404 18.9123C1.87342 19.2877 1.57674 19.5783 1.35877 19.7781C1.24978 19.875 1.15896 19.9537 1.09842 20.0021C1.06814 20.0264 1.04392 20.0445 1.03181 20.0506L1.01971 20.0627C0.686698 20.3109 0.541385 20.7469 0.674588 21.1404C0.807792 21.534 1.17713 21.8125 1.5949 21.8125C2.91482 21.8125 4.24685 21.4734 5.35486 21.0557C5.91189 20.8438 6.4326 20.6076 6.88064 20.3654C8.74549 21.2857 10.907 21.8125 13.2199 21.8125ZM27.7512 11.1562C27.7512 17.9557 21.751 23.0779 14.6428 23.6895C16.114 28.1941 20.9941 31.5 26.7824 31.5C29.0953 31.5 31.2568 30.9732 33.1217 30.0529C33.5758 30.2951 34.0904 30.5312 34.6474 30.7432C35.7555 31.1609 37.0875 31.5 38.4074 31.5C38.8252 31.5 39.2006 31.2275 39.3277 30.8279C39.4549 30.4283 39.3156 29.9924 38.9765 29.7441L38.9644 29.732C38.9523 29.7199 38.9281 29.7078 38.8978 29.6836C38.8373 29.6352 38.7465 29.5625 38.6375 29.4596C38.4195 29.2598 38.1228 28.9691 37.8322 28.5938C37.4992 28.1699 37.1844 27.6613 36.9724 27.0982C38.4801 25.3424 39.3701 23.1809 39.3701 20.8377C39.3701 15.2189 34.2297 10.6113 27.7088 10.2117C27.733 10.5205 27.7451 10.8354 27.7451 11.1502L27.7512 11.1562ZM11.5367 5.18027H14.4732C16.2351 5.18027 17.658 6.60918 17.658 8.36504C17.658 9.50332 17.0465 10.5629 16.0595 11.126L14.4308 12.0645C14.4187 12.7244 13.8799 13.2512 13.2199 13.2512C12.5539 13.2512 12.009 12.7063 12.009 12.0402V11.3621C12.009 10.9262 12.239 10.5266 12.6144 10.3146L14.8547 9.03105C15.0908 8.8918 15.2361 8.64355 15.2361 8.37109C15.2361 7.94727 14.891 7.6082 14.4732 7.6082H11.5367C11.3672 7.6082 11.2158 7.71719 11.1553 7.87461L11.131 7.93516C10.907 8.56484 10.2168 8.89785 9.58709 8.67383C8.9574 8.4498 8.62439 7.75957 8.84842 7.12988L8.87264 7.06934C9.27224 5.94316 10.3379 5.18633 11.5367 5.18633V5.18027ZM13.2199 14.8678C13.4401 14.8543 13.6608 14.886 13.8682 14.961C14.0757 15.036 14.2657 15.1526 14.4264 15.3038C14.5871 15.455 14.7152 15.6374 14.8027 15.8399C14.8902 16.0424 14.9354 16.2607 14.9354 16.4813C14.9354 16.702 14.8902 16.9203 14.8027 17.1228C14.7152 17.3253 14.5871 17.5077 14.4264 17.6589C14.2657 17.8101 14.0757 17.9267 13.8682 18.0017C13.6608 18.0767 13.4401 18.1084 13.2199 18.0949C12.9997 18.1084 12.779 18.0767 12.5716 18.0017C12.3641 17.9267 12.1741 17.8101 12.0134 17.6589C11.8527 17.5077 11.7246 17.3253 11.6371 17.1228C11.5496 16.9203 11.5044 16.702 11.5044 16.4813C11.5044 16.2607 11.5496 16.0424 11.6371 15.8399C11.7246 15.6374 11.8527 15.455 12.0134 15.3038C12.1741 15.1526 12.3641 15.036 12.5716 14.961C12.779 14.886 12.9997 14.8543 13.2199 14.8678ZM34.9017 20.2443L30.058 25.0881C29.5857 25.5604 28.8168 25.5604 28.3445 25.0881L25.9226 22.6662C25.4504 22.1939 25.4504 21.425 25.9226 20.9527C26.3949 20.4805 27.1638 20.4805 27.6361 20.9527L29.2043 22.5209L33.1943 18.5309C33.6666 18.0586 34.4355 18.0586 34.9078 18.5309C35.3801 19.0031 35.3801 19.7721 34.9078 20.2443H34.9017Z" fill="white"/>
</svg>
