<svg width="25" height="20" viewBox="0 0 25 20" fill="none" xmlns="http://www.w3.org/2000/svg">
<g id="lightbulb-on-solid 1" clip-path="url(#clip0_255_220)">
<path id="Vector" d="M2.70703 0.156245L4.58203 1.40624C5.01172 1.69531 5.12891 2.27734 4.84375 2.70703C4.55859 3.13671 3.97266 3.2539 3.54297 2.96874L1.66797 1.71874C1.23828 1.42968 1.12109 0.847651 1.40625 0.417964C1.69141 -0.0117236 2.27734 -0.128911 2.70703 0.156245ZM23.332 1.71874L21.457 2.96874C21.0273 3.25781 20.4453 3.14062 20.1562 2.70703C19.8672 2.27343 19.9844 1.69531 20.418 1.40624L22.293 0.156245C22.7227 -0.132817 23.3047 -0.0156299 23.5938 0.417964C23.8828 0.851558 23.7656 1.42968 23.332 1.71874ZM0.9375 6.24999H3.4375C3.95703 6.24999 4.375 6.66796 4.375 7.18749C4.375 7.70703 3.95703 8.12499 3.4375 8.12499H0.9375C0.417969 8.12499 0 7.70703 0 7.18749C0 6.66796 0.417969 6.24999 0.9375 6.24999ZM21.5625 6.24999H24.0625C24.582 6.24999 25 6.66796 25 7.18749C25 7.70703 24.582 8.12499 24.0625 8.12499H21.5625C21.043 8.12499 20.625 7.70703 20.625 7.18749C20.625 6.66796 21.043 6.24999 21.5625 6.24999ZM4.58203 12.9687L2.70703 14.2187C2.27734 14.5078 1.69531 14.3906 1.40625 13.957C1.11719 13.5234 1.23438 12.9453 1.66797 12.6562L3.54297 11.4062C3.97266 11.1172 4.55469 11.2344 4.84375 11.668C5.13281 12.1016 5.01562 12.6797 4.58203 12.9687ZM21.457 11.4102L23.332 12.6602C23.7617 12.9492 23.8789 13.5312 23.5938 13.9609C23.3086 14.3906 22.7227 14.5078 22.293 14.2227L20.418 12.9727C19.9883 12.6836 19.8711 12.1016 20.1562 11.6719C20.4414 11.2422 21.0273 11.125 21.457 11.4102ZM17.5469 11.6328C16.7734 12.6914 15.9961 13.7578 15.625 15H9.375C9 13.7539 8.22266 12.6914 7.45312 11.6328C7.25 11.3555 7.04688 11.0781 6.85156 10.7969C6.07812 9.68359 5.625 8.33203 5.625 6.87499C5.625 3.07812 8.70312 -4.88036e-06 12.5 -4.88036e-06C16.2969 -4.88036e-06 19.375 3.07812 19.375 6.87499C19.375 8.33203 18.9219 9.68359 18.1484 10.793C17.9531 11.0742 17.75 11.3516 17.5469 11.6289V11.6328ZM15.625 16.875C15.625 18.6016 14.2266 20 12.5 20C10.7734 20 9.375 18.6016 9.375 16.875V16.25H15.625V16.875ZM12.5 3.74999C12.8438 3.74999 13.125 3.46874 13.125 3.12499C13.125 2.78124 12.8438 2.49999 12.5 2.49999C10.082 2.49999 8.125 4.45703 8.125 6.87499C8.125 7.21874 8.40625 7.49999 8.75 7.49999C9.09375 7.49999 9.375 7.21874 9.375 6.87499C9.375 5.14843 10.7734 3.74999 12.5 3.74999Z" fill="white"/>
</g>
<defs>
<clipPath id="clip0_255_220">
<rect width="25" height="20" fill="white"/>
</clipPath>
</defs>
</svg>
