<svg width="232" height="92" viewBox="0 0 232 92" fill="none" xmlns="http://www.w3.org/2000/svg">
<g>
<path d="M41.9856 68.8851H18.8819C17.5811 68.8851 16.5229 67.827 16.5229 66.5262V62.682C16.5229 61.3812 17.5811 60.3231 18.8819 60.3231H41.9856C43.2864 60.3231 44.3445 61.3812 44.3445 62.682V66.5262C44.3445 67.827 43.2864 68.8851 41.9856 68.8851Z" fill="#182A48"/>
<path d="M41.9856 79.6992H18.8819C17.5811 79.6992 16.5229 78.6411 16.5229 77.3403V73.4961C16.5229 72.1953 17.5811 71.1372 18.8819 71.1372H41.9856C43.2864 71.1372 44.3445 72.1953 44.3445 73.4961V77.3403C44.3445 78.6411 43.2864 79.6992 41.9856 79.6992Z" fill="#182A48"/>
<path d="M35.0839 91.1443H25.7842C23.0855 91.1443 20.9014 88.9601 20.9014 86.2614V83.0191C20.9014 82.7764 21.0955 82.5823 21.3382 82.5823H39.5105C39.7532 82.5823 39.9474 82.7764 39.9474 83.0191V86.2614C39.9474 88.9601 37.7632 91.1443 35.0645 91.1443" fill="#182A48"/>
<path d="M44.4804 7.09717H39.3355V14.7466C39.3355 15.5815 39.6655 16.3775 40.2577 16.9599L47.2082 28.5798C47.8586 29.2302 48.2275 30.1232 48.2275 31.0455V33.715C48.2275 34.6372 47.8586 35.5206 47.2082 36.1807L40.3645 43.0244C39.7141 43.6748 38.8307 44.0437 37.8988 44.0437H22.9881C22.0659 44.0437 21.1826 43.6748 20.5224 43.0244L13.6787 36.1807C13.0283 35.5303 12.6594 34.6469 12.6594 33.715V29.599L20.6292 16.9599C21.2117 16.3678 21.5417 15.5718 21.5417 14.7466V7.09717H16.3968L1.25317 22.2408C0.602771 22.8912 0.233887 23.7746 0.233887 24.7065V37.6756C0.233887 38.5978 0.602771 39.4812 1.25317 40.1413L15.3775 54.2656C16.0279 54.916 16.921 55.2849 17.8432 55.2849H43.0534C43.9756 55.2849 44.859 54.916 45.5191 54.2656L59.6435 40.1413C60.2939 39.4909 60.6627 38.6075 60.6627 37.6756V24.7065C60.6627 23.7843 60.2939 22.9009 59.6435 22.2408L44.4998 7.09717H44.4804Z" fill="#E98123"/>
<path d="M27.2788 24.1726V2.19493C27.2788 1.11741 28.1525 0.234009 29.2397 0.234009H31.6277C32.7053 0.234009 33.5886 1.1077 33.5886 2.19493V24.1726C33.5886 25.2501 32.715 26.1335 31.6277 26.1335H29.2397C28.1622 26.1335 27.2788 25.2598 27.2788 24.1726Z" fill="#E98123"/>
<path d="M92.4255 38.6269V48.0917C92.4255 51.334 92.1537 51.4019 89.1152 51.4019C86.8437 51.4019 86.6398 51.2078 86.6398 48.0917V41.5683H77.5051V48.0917C77.5051 51.334 77.2333 51.4019 74.156 51.4019C71.8845 51.4019 71.7195 51.2078 71.7195 48.0917V38.5201C71.7195 36.3457 71.5156 30.3271 71.5156 29.1913C71.5156 27.3857 71.5836 27.3177 74.8938 27.3177C77.5051 27.3177 77.641 27.3857 77.641 30.2979C77.641 32.7054 77.5439 34.7828 77.5051 37.0834H86.601C86.5719 34.3751 86.436 30.1232 86.436 29.1913C86.436 27.4148 86.5039 27.3177 89.8142 27.3177C92.4255 27.3177 92.5225 27.3857 92.5225 30.2979C92.5225 33.2101 92.4255 35.6856 92.4255 38.6269Z" fill="#182A48"/>
<path d="M95.231 42.4128C95.231 36.0932 98.745 33.4431 104.201 33.4431C109.656 33.4431 113.199 36.0835 113.199 42.4128C113.199 48.742 109.588 51.7416 104.201 51.7416C98.813 51.7416 95.231 48.6935 95.231 42.4128ZM107.21 42.7137C107.21 39.4714 106.074 38.1318 104.201 38.1318C102.327 38.1318 101.191 39.4714 101.191 42.7137C101.191 45.956 102.327 47.5966 104.201 47.5966C106.074 47.5966 107.21 45.9269 107.21 42.7137Z" fill="#E98123"/>
<path d="M132.721 47.2569V48.1597C132.721 51.2758 132.488 51.402 129.44 51.402C127.295 51.402 126.994 51.2369 126.994 48.5868C125.761 50.7322 123.247 51.732 121.072 51.732C118.296 51.732 115.782 50.8001 115.782 45.4416C115.782 44.6359 115.782 43.8399 115.821 42.9953C115.753 40.287 115.549 37.5494 115.549 36.2389C115.549 33.8606 115.578 33.7635 118.956 33.7635C121.597 33.7635 121.665 33.8315 121.665 36.7729V45.1698C121.665 46.6065 122.237 47.4511 123.538 47.4511C125.179 47.4511 126.712 45.7814 126.916 42.3352C126.848 40.2967 126.809 38.5202 126.809 36.7826C126.809 33.8703 126.945 33.7733 130.217 33.7733C132.789 33.7733 132.896 33.8412 132.896 36.7826C132.896 39.7239 132.692 42.8691 132.692 47.2472" fill="#E98123"/>
<path d="M141.419 44.6552C141.953 47.0627 143.497 47.4704 145.399 47.4704C147.176 47.4704 148.011 47.1306 149.515 46.5967C150.389 46.2958 150.787 46.3637 151.156 47.3345L151.728 48.9362C151.961 49.7419 151.758 50.0428 150.797 50.4408C149.331 51.1398 147.418 51.7416 144.807 51.7416C139.089 51.7416 135.507 48.8003 135.507 42.4128C135.507 36.0253 138.983 33.4431 144.341 33.4431C149.127 33.4431 152.272 35.6855 152.272 41.4032C152.272 43.4418 151.437 44.6455 149.263 44.6455H141.429L141.419 44.6552ZM141.215 41.1411H147.341C147.273 38.5007 146.098 37.627 144.293 37.627C142.652 37.627 141.477 38.5589 141.215 41.1411Z" fill="#E98123"/>
<path d="M163.163 46.189C163.163 43.4126 154.495 46.024 154.495 39.2287C154.495 34.3459 158.912 33.4431 162.057 33.4431C164.367 33.4431 166.445 33.7829 167.58 34.1809C168.551 34.5206 168.881 34.8507 168.59 35.8894L168.153 37.297C167.852 38.4036 167.046 38.2968 166.309 38.1027C165.406 37.8697 164.066 37.5688 162.464 37.5688C160.727 37.5688 160.028 38.0735 160.028 38.9084C160.028 41.5488 168.726 38.8404 168.726 45.8686C168.726 50.9165 164.377 51.7611 161.27 51.7611C159.397 51.7611 156.155 51.4213 155.019 51.0912C154.184 50.8583 153.815 50.3923 154.048 49.3827L154.378 48.0431C154.611 47.0432 155.145 46.9073 155.922 47.0432C156.524 47.1112 158.795 47.6451 160.639 47.6451C162.484 47.6451 163.183 47.0821 163.183 46.2084" fill="#E98123"/>
<path d="M172.25 33.7829C172.522 29.366 174.822 28.9292 176.735 28.9292C178.074 28.9292 178.142 29.1331 178.142 31.2687V33.7732H181.618C182.385 33.7732 183.258 33.9383 183.258 35.6468V36.7146C183.258 38.2872 182.326 38.4231 181.618 38.4231H178.074C178.074 40.5296 178.045 42.7429 178.045 45.0144C178.045 46.4511 178.676 47.1889 179.919 47.1889C180.55 47.1889 181.123 47.053 181.589 46.9559C182.423 46.7521 182.996 46.82 183.258 47.8878L183.598 49.3925C183.831 50.4603 183.491 50.8292 182.491 51.1302C181.521 51.4311 179.812 51.732 178.278 51.732C174.434 51.732 172.425 49.8585 172.425 46.3832C172.425 43.403 172.357 40.8305 172.289 38.4231H171.522C170.823 38.4231 169.881 38.2872 169.881 36.7146V35.6468C169.881 33.9383 170.755 33.7732 171.522 33.7732H172.26L172.25 33.7829Z" fill="#E98123"/>
<path d="M138.827 78.3013H129.129C129.1 79.1361 129.061 79.971 129.061 80.8446C129.061 83.9898 128.926 84.0869 126.217 84.0869C123.208 84.0869 123.179 83.9898 123.179 81.3785C123.179 66.1572 130.877 59.663 133.983 59.663C137.089 59.663 144.817 66.1475 144.817 81.3785C144.817 83.9898 144.787 84.0869 141.778 84.0869C139.07 84.0869 138.934 83.9898 138.934 80.8446C138.934 79.971 138.895 79.1361 138.837 78.3013M129.731 73.8261H138.264C137.089 68.1376 134.75 65.1671 133.983 65.1671C133.216 65.1671 130.867 68.1473 129.731 73.8261Z" fill="#182A48"/>
<path d="M148.622 66.4679C148.884 62.051 151.194 61.6141 153.107 61.6141C154.446 61.6141 154.514 61.818 154.514 63.9536V66.4581H157.99C158.757 66.4581 159.63 66.6232 159.63 68.3317V69.3995C159.63 70.9721 158.689 71.108 157.99 71.108H154.446C154.446 73.2145 154.417 75.4278 154.417 77.6994C154.417 79.1361 155.048 79.8738 156.291 79.8738C156.922 79.8738 157.495 79.7379 157.961 79.6409C158.795 79.437 159.368 79.505 159.63 80.5728L159.96 82.0774C160.193 83.1452 159.863 83.5141 158.854 83.8151C157.883 84.116 156.174 84.4169 154.641 84.4169C150.796 84.4169 148.787 82.5434 148.787 79.0681C148.787 76.0879 148.719 73.5155 148.651 71.108H147.884C147.185 71.108 146.244 70.9721 146.244 69.3995V68.3317C146.244 66.6232 147.117 66.4581 147.884 66.4581H148.622V66.4679Z" fill="#182A48"/>
<path d="M167.319 77.3305C167.852 79.7379 169.396 80.1456 171.299 80.1456C173.075 80.1456 173.91 79.8059 175.415 79.272C176.288 78.9711 176.686 79.039 177.055 80.0098L177.628 81.6115C177.861 82.4172 177.667 82.7181 176.696 83.1161C175.23 83.8151 173.318 84.4169 170.706 84.4169C164.989 84.4169 161.407 81.4756 161.407 75.0881C161.407 68.7006 164.882 66.1184 170.241 66.1184C175.026 66.1184 178.172 68.3608 178.172 74.0785C178.172 76.1171 177.337 77.3208 175.162 77.3208H167.338L167.319 77.3305ZM167.124 73.8261H173.25C173.182 71.1857 172.007 70.312 170.202 70.312C168.561 70.312 167.387 71.2439 167.124 73.8261Z" fill="#182A48"/>
<path d="M186.656 71.2148V80.8446C186.656 83.9607 186.423 84.0868 183.375 84.0868C181.132 84.0868 180.929 83.9218 180.929 80.8446V71.2148C180.929 69.0112 180.734 62.1869 180.734 61.0414C180.734 59.2649 180.763 59.1678 184.074 59.1678C186.685 59.1678 186.782 59.2358 186.782 62.148C186.782 65.0602 186.646 68.2346 186.646 71.2148" fill="#182A48"/>
<path d="M189.83 68.3317C189.83 66.5553 189.859 66.4582 193.169 66.4582C195.742 66.4582 195.849 66.5261 195.849 69.4384C195.849 72.3506 195.742 75.5249 195.742 78.5051V80.8446C195.742 83.9607 195.48 84.0869 192.461 84.0869C190.179 84.0869 190.014 83.9219 190.014 80.8446V78.5051C190.014 76.3015 189.811 69.4772 189.811 68.3317M189.859 62.352C189.859 59.4397 190.966 59.1388 193.033 59.1388C195.645 59.1388 195.975 59.4009 195.975 61.2453V62.0122C195.975 64.9535 194.839 65.2254 192.762 65.2254C190.15 65.2254 189.849 64.9535 189.849 63.1188V62.352H189.859Z" fill="#182A48"/>
<path d="M204.449 77.3305C204.983 79.7379 206.527 80.1456 208.429 80.1456C210.206 80.1456 211.041 79.8059 212.545 79.272C213.419 78.9711 213.817 79.039 214.186 80.0098L214.759 81.6115C214.992 82.4172 214.788 82.7181 213.827 83.1161C212.361 83.8151 210.449 84.4169 207.837 84.4169C202.12 84.4169 198.538 81.4756 198.538 75.0881C198.538 68.7006 202.023 66.1184 207.371 66.1184C212.157 66.1184 215.302 68.3608 215.302 74.0785C215.302 76.1171 214.468 77.3208 212.293 77.3208H204.459L204.449 77.3305ZM204.246 73.8261H210.371C210.303 71.1857 209.128 70.312 207.323 70.312C205.682 70.312 204.508 71.2439 204.246 73.8261Z" fill="#182A48"/>
<path d="M223.874 69.7393C225.107 67.3028 227.35 66.1282 229.223 66.1282C229.893 66.1282 230.524 66.167 230.961 66.2932C231.766 66.5941 231.863 67.031 231.698 67.8949L231.262 70.0694C231.058 70.9722 230.796 71.244 229.718 71.0401C229.252 70.9722 228.65 70.8751 228.145 70.8751C225.903 70.8751 223.826 72.2147 223.729 78.1363V80.7476C223.729 83.9899 223.525 84.0967 220.447 84.0967C218.176 84.0967 218.001 83.8928 218.001 80.7476V78.5052C218.001 76.3016 217.797 69.4773 217.797 68.3318C217.797 66.5553 217.865 66.4582 221.176 66.4582C223.748 66.4582 223.855 66.5262 223.855 69.4384V69.7393H223.874Z" fill="#182A48"/>
</g>
</svg>
