<svg width="51" height="45" viewBox="0 0 51 45" fill="none" xmlns="http://www.w3.org/2000/svg">
<path  d="M19.5385 37.1057C19.2824 36.5918 18.8362 36.5397 18.6557 36.5397C18.4751 36.5397 18.0289 36.5909 17.7859 37.077L17.1201 38.4086C16.5671 39.518 14.9473 39.3956 14.561 38.2272L13.1001 33.8461L12.1791 36.6135C11.6678 38.1465 10.2364 39.1768 8.62006 39.1768H7.54454C6.77718 39.1768 6.15565 38.5553 6.15565 37.788C6.15565 37.0206 6.77718 36.3991 7.54454 36.3991H8.62006C9.03933 36.3991 9.41086 36.1317 9.54367 35.7341L11.1227 30.9911C11.4091 30.1395 12.2025 29.5666 13.1001 29.5666C13.9977 29.5666 14.7911 30.1387 15.0767 30.9911L16.2815 34.6057C17.9959 33.2003 20.9742 33.7637 22.0107 35.8348C22.1747 36.163 22.4873 36.3513 22.8232 36.3782V29.2498L33.9343 18.2177V14.1769H22.1279C20.982 14.1769 20.0445 13.2394 20.0445 12.0935V0.287964H2.68343C1.52892 0.287964 0.600098 1.21678 0.600098 2.3713V42.6491C0.600098 43.8036 1.52892 44.7324 2.68343 44.7324H31.8501C33.0046 44.7324 33.9334 43.8036 33.9334 42.6491V39.1768L22.8223 39.1673C21.423 39.1404 20.1678 38.3617 19.5385 37.1057ZM33.9334 10.8696C33.9334 10.3227 33.7164 9.79317 33.3258 9.40255L24.8275 0.895603C24.4369 0.504978 23.9074 0.287964 23.3518 0.287964H22.8223V11.3991H33.9334V10.8696ZM25.6001 30.406V36.3991H31.5888L45.6235 22.2689L39.7312 16.3765L25.6001 30.406ZM49.9525 14.8131L47.186 12.0466C46.3232 11.1838 44.923 11.1838 44.0602 12.0466L41.6947 14.4121L47.5871 20.3045L49.9525 17.939C50.8162 17.0762 50.8162 15.676 49.9525 14.8131Z" fill="#E98123"/>
</svg>
