<svg width="51" height="40" viewBox="0 0 51 40" fill="none" xmlns="http://www.w3.org/2000/svg">
<path id="Vector" d="M0.693848 35.0102C0.693848 37.3105 2.56017 39.1768 4.86051 39.1768H46.5272C48.8275 39.1768 50.6938 37.3105 50.6938 35.0102V19.7324H0.693848V35.0102ZM17.3605 29.1074C17.3605 28.5345 17.8293 28.0657 18.4022 28.0657H30.2077C30.7807 28.0657 31.2494 28.5345 31.2494 29.1074V32.5796C31.2494 33.1525 30.7807 33.6213 30.2077 33.6213H18.4022C17.8293 33.6213 17.3605 33.1525 17.3605 32.5796V29.1074ZM6.2494 29.1074C6.2494 28.5345 6.71815 28.0657 7.29107 28.0657H13.5411C14.114 28.0657 14.5827 28.5345 14.5827 29.1074V32.5796C14.5827 33.1525 14.114 33.6213 13.5411 33.6213H7.29107C6.71815 33.6213 6.2494 33.1525 6.2494 32.5796V29.1074ZM50.6938 4.45463V8.6213H0.693848V4.45463C0.693848 2.15428 2.56017 0.287964 4.86051 0.287964H46.5272C48.8275 0.287964 50.6938 2.15428 50.6938 4.45463Z" fill="#E98123"/>
</svg>
