<svg width="42" height="51" viewBox="0 0 42 51" fill="none" xmlns="http://www.w3.org/2000/svg">
<path  d="M27.5269 9.66296C30.1157 9.66296 32.2144 7.56433 32.2144 4.97546C32.2144 2.3866 30.1157 0.287964 27.5269 0.287964C24.938 0.287964 22.8394 2.3866 22.8394 4.97546C22.8394 7.56433 24.938 9.66296 27.5269 9.66296ZM12.0669 31.2909L10.6216 34.662H4.08936C2.36377 34.662 0.964355 36.0614 0.964355 37.787C0.964355 39.5126 2.36377 40.912 4.08936 40.912H11.6528C13.5327 40.912 15.2251 39.7948 15.9604 38.0712L16.8188 36.0673L15.7769 35.452C14.0854 34.453 12.8413 32.9745 12.0669 31.2909ZM38.4644 22.162H34.1646L31.6196 16.9618C30.3989 14.4667 28.1577 12.6425 25.5864 11.9872L18.645 9.92273C15.8813 9.25867 13.0034 9.86902 10.7505 11.5966L6.87646 14.5663C5.50635 15.6161 5.24658 17.577 6.29834 18.9471C7.3501 20.3173 9.31006 20.5741 10.6792 19.5253L14.5552 16.5555C15.3042 15.9803 16.2583 15.7743 17.0229 15.9559L18.4585 16.3827L14.8003 24.9169C13.5679 27.7958 14.6724 31.1678 17.3687 32.7596L25.6675 37.6591L22.9849 46.2264C22.4692 47.8729 23.3862 49.6259 25.0327 50.1415C25.3442 50.2391 25.6587 50.286 25.9683 50.286C27.2974 50.286 28.5298 49.4296 28.9487 48.0936L32.0386 38.2245C32.6157 36.1962 31.7563 34.0175 29.9253 32.913L23.9448 29.3837L27.0024 21.7391L28.9819 25.785C29.7632 27.3807 31.4155 28.411 33.1919 28.411H38.4644C40.1899 28.411 41.5894 27.0116 41.5894 25.286C41.5894 23.5604 40.1899 22.162 38.4644 22.162Z" fill="#E98123"/>
</svg>
