<svg width="51" height="51" viewBox="0 0 51 51" fill="none" xmlns="http://www.w3.org/2000/svg">
<path  d="M19.1499 20.6005C19.1499 18.8749 17.7505 17.4755 16.0249 17.4755H14.4624C11.0103 17.4755 8.2124 20.2733 8.2124 23.7255V28.413C8.2124 31.8651 11.0103 34.663 14.4624 34.663H16.0249C17.7505 34.663 19.1499 33.2635 19.1499 31.538V20.6005ZM36.3374 34.663C39.7896 34.663 42.5874 31.8651 42.5874 28.413V23.7255C42.5874 20.2733 39.7896 17.4755 36.3374 17.4755H34.7749C33.0493 17.4755 31.6499 18.8749 31.6499 20.6005V31.538C31.6499 33.2635 33.0493 34.663 34.7749 34.663H36.3374ZM25.3999 0.287964C11.4526 0.287964 0.847168 11.8925 0.399902 25.288V26.8505C0.399902 27.7137 1.09912 28.413 1.9624 28.413H3.5249C4.38818 28.413 5.0874 27.7137 5.0874 26.8505V25.288C5.0874 14.0878 14.1997 4.97546 25.3999 4.97546C36.6001 4.97546 45.7124 14.0878 45.7124 25.288H45.7007C45.7085 25.5253 45.7124 41.4716 45.7124 41.4716C45.7124 43.7518 43.8638 45.6005 41.5835 45.6005H31.6499C31.6499 43.0116 29.5513 40.913 26.9624 40.913H23.8374C21.2485 40.913 19.1499 43.0116 19.1499 45.6005C19.1499 48.1893 21.2485 50.288 23.8374 50.288H41.5835C46.4526 50.288 50.3999 46.3407 50.3999 41.4716V25.288C49.9526 11.8925 39.3472 0.287964 25.3999 0.287964Z" fill="#E98123"/>
</svg>
