<svg width="143" height="57" viewBox="0 0 143 57" fill="none" xmlns="http://www.w3.org/2000/svg">
<g>
<path d="M25.7185 42.5766H11.4868C10.6855 42.5766 10.0337 41.9248 10.0337 41.1235V38.7556C10.0337 37.9543 10.6855 37.3025 11.4868 37.3025H25.7185C26.5198 37.3025 27.1715 37.9543 27.1715 38.7556V41.1235C27.1715 41.9248 26.5198 42.5766 25.7185 42.5766Z" fill="white"/>
<path d="M25.7185 49.238H11.4868C10.6855 49.238 10.0337 48.5862 10.0337 47.7849V45.4169C10.0337 44.6157 10.6855 43.9639 11.4868 43.9639H25.7185C26.5198 43.9639 27.1715 44.6157 27.1715 45.4169V47.7849C27.1715 48.5862 26.5198 49.238 25.7185 49.238Z" fill="white"/>
<path d="M21.4673 56.288H15.7388C14.0764 56.288 12.731 54.9426 12.731 53.2802V51.283C12.731 51.1335 12.8506 51.0139 13 51.0139H24.1941C24.3436 51.0139 24.4632 51.1335 24.4632 51.283V53.2802C24.4632 54.9426 23.1177 56.288 21.4554 56.288" fill="white"/>
<path d="M27.2555 4.51562H24.0863V9.22764C24.0863 9.7419 24.2896 10.2322 24.6544 10.591L28.9358 17.7487C29.3365 18.1494 29.5637 18.6995 29.5637 19.2676V20.912C29.5637 21.4801 29.3365 22.0242 28.9358 22.4308L24.7201 26.6466C24.3195 27.0472 23.7753 27.2744 23.2013 27.2744H14.0165C13.4484 27.2744 12.9042 27.0472 12.4976 26.6466L8.28191 22.4308C7.88126 22.0302 7.65403 21.4861 7.65403 20.912V18.3766L12.5634 10.591C12.9222 10.2263 13.1255 9.73592 13.1255 9.22764V4.51562H9.95622L0.627871 13.844C0.22723 14.2446 0 14.7888 0 15.3628V23.3517C0 23.9198 0.22723 24.464 0.627871 24.8706L9.32835 33.5711C9.729 33.9717 10.2791 34.1989 10.8472 34.1989H26.3765C26.9446 34.1989 27.4887 33.9717 27.8954 33.5711L36.5958 24.8706C36.9965 24.4699 37.2237 23.9258 37.2237 23.3517V15.3628C37.2237 14.7948 36.9965 14.2506 36.5958 13.844L27.2675 4.51562H27.2555Z" fill="white"/>
<path d="M16.6597 15.0341V1.496C16.6597 0.832252 17.1978 0.288086 17.8676 0.288086H19.3386C20.0023 0.288086 20.5465 0.826272 20.5465 1.496V15.0341C20.5465 15.6978 20.0083 16.242 19.3386 16.242H17.8676C17.2038 16.242 16.6597 15.7038 16.6597 15.0341Z" fill="white"/>
<path d="M56.7895 23.9378V29.768C56.7895 31.7652 56.6221 31.8071 54.7504 31.8071C53.3511 31.8071 53.2256 31.6875 53.2256 29.768V25.7497H47.5987V29.768C47.5987 31.7652 47.4312 31.8071 45.5357 31.8071C44.1364 31.8071 44.0348 31.6875 44.0348 29.768V23.872C44.0348 22.5326 43.9092 18.8251 43.9092 18.1255C43.9092 17.0133 43.951 16.9714 45.9901 16.9714C47.5987 16.9714 47.6824 17.0133 47.6824 18.8072C47.6824 20.2902 47.6226 21.5698 47.5987 22.987H53.2017C53.1837 21.3187 53.1 18.6996 53.1 18.1255C53.1 17.0312 53.1419 16.9714 55.1809 16.9714C56.7895 16.9714 56.8493 17.0133 56.8493 18.8072C56.8493 20.6011 56.7895 22.1259 56.7895 23.9378Z" fill="white"/>
<path d="M58.5176 26.2699C58.5176 22.3771 60.6822 20.7446 64.0428 20.7446C67.4034 20.7446 69.586 22.3711 69.586 26.2699C69.586 30.1687 67.3616 32.0164 64.0428 32.0164C60.7241 32.0164 58.5176 30.1388 58.5176 26.2699ZM65.8965 26.4552C65.8965 24.458 65.1969 23.6328 64.0428 23.6328C62.8887 23.6328 62.1891 24.458 62.1891 26.4552C62.1891 28.4525 62.8887 29.463 64.0428 29.463C65.1969 29.463 65.8965 28.4345 65.8965 26.4552Z" fill="white"/>
<path d="M81.6113 29.2539V29.8101C81.6113 31.7296 81.4678 31.8073 79.5902 31.8073C78.2687 31.8073 78.0833 31.7056 78.0833 30.0732C77.3239 31.3947 75.7751 32.0106 74.4357 32.0106C72.7255 32.0106 71.1767 31.4365 71.1767 28.1357C71.1767 27.6394 71.1767 27.1491 71.2006 26.6289C71.1588 24.9605 71.0332 23.2742 71.0332 22.467C71.0332 21.0019 71.0511 20.9421 73.1321 20.9421C74.7586 20.9421 74.8004 20.984 74.8004 22.7959V27.9683C74.8004 28.8533 75.1532 29.3735 75.9545 29.3735C76.9651 29.3735 77.9099 28.345 78.0355 26.2222C77.9936 24.9665 77.9697 23.8722 77.9697 22.8018C77.9697 21.0079 78.0534 20.9481 80.0686 20.9481C81.6532 20.9481 81.719 20.99 81.719 22.8018C81.719 24.6137 81.5934 26.5511 81.5934 29.248" fill="white"/>
<path d="M86.9693 27.6512C87.2982 29.1342 88.2489 29.3853 89.421 29.3853C90.5153 29.3853 91.0295 29.176 91.9564 28.8471C92.4945 28.6618 92.7397 28.7036 92.9669 29.3016L93.3197 30.2882C93.4633 30.7846 93.3377 30.9699 92.7457 31.2151C91.8428 31.6456 90.6648 32.0164 89.0562 32.0164C85.5342 32.0164 83.3276 30.2045 83.3276 26.2699C83.3276 22.3352 85.4684 20.7446 88.7692 20.7446C91.7172 20.7446 93.6546 22.1259 93.6546 25.648C93.6546 26.9037 93.1404 27.6452 91.8009 27.6452H86.9753L86.9693 27.6512ZM86.8437 25.4865H90.6169C90.5751 23.8601 89.8515 23.3219 88.7393 23.3219C87.7287 23.3219 87.0052 23.8959 86.8437 25.4865Z" fill="white"/>
<path d="M100.363 28.596C100.363 26.8858 95.0234 28.4943 95.0234 24.3085C95.0234 21.3007 97.7442 20.7446 99.6816 20.7446C101.105 20.7446 102.384 20.9539 103.084 21.1991C103.682 21.4084 103.885 21.6117 103.706 22.2515L103.437 23.1186C103.251 23.8003 102.755 23.7345 102.301 23.6149C101.745 23.4714 100.919 23.286 99.9328 23.286C98.8624 23.286 98.4319 23.5969 98.4319 24.1112C98.4319 25.7377 103.79 24.0693 103.79 28.3987C103.79 31.5081 101.111 32.0283 99.1973 32.0283C98.0432 32.0283 96.0459 31.8191 95.3463 31.6157C94.8321 31.4722 94.6048 31.1852 94.7483 30.5633L94.9517 29.7381C95.0952 29.1222 95.4241 29.0385 95.9024 29.1222C96.2732 29.1641 97.6724 29.4929 98.8086 29.4929C99.9447 29.4929 100.375 29.1461 100.375 28.608" fill="white"/>
<path d="M105.961 20.954C106.128 18.2332 107.545 17.9641 108.723 17.9641C109.548 17.9641 109.59 18.0897 109.59 19.4052V20.948H111.731C112.203 20.948 112.742 21.0497 112.742 22.1021V22.7599C112.742 23.7286 112.167 23.8123 111.731 23.8123H109.548C109.548 25.1099 109.53 26.4732 109.53 27.8725C109.53 28.7575 109.919 29.212 110.684 29.212C111.073 29.212 111.426 29.1282 111.713 29.0684C112.227 28.9429 112.58 28.9847 112.742 29.6425L112.951 30.5694C113.094 31.2271 112.885 31.4544 112.269 31.6397C111.671 31.8251 110.619 32.0105 109.674 32.0105C107.306 32.0105 106.068 30.8564 106.068 28.7156C106.068 26.8799 106.026 25.2952 105.984 23.8123H105.512C105.081 23.8123 104.501 23.7286 104.501 22.7599V22.1021C104.501 21.0497 105.04 20.948 105.512 20.948H105.966L105.961 20.954Z" fill="white"/>
<path d="M85.3727 48.3768H79.399C79.381 48.8911 79.3571 49.4053 79.3571 49.9435C79.3571 51.8809 79.2734 51.9407 77.6051 51.9407C75.7513 51.9407 75.7334 51.8809 75.7334 50.2724C75.7334 40.8962 80.4753 36.8958 82.3888 36.8958C84.3023 36.8958 89.0622 40.8902 89.0622 50.2724C89.0622 51.8809 89.0442 51.9407 87.1905 51.9407C85.5222 51.9407 85.4385 51.8809 85.4385 49.9435C85.4385 49.4053 85.4146 48.8911 85.3787 48.3768M79.7697 45.6202H85.0259C84.3023 42.116 82.8612 40.2863 82.3888 40.2863C81.9164 40.2863 80.4693 42.122 79.7697 45.6202Z" fill="white"/>
<path d="M91.4059 41.0878C91.5674 38.367 92.9906 38.0979 94.1686 38.0979C94.9938 38.0979 95.0356 38.2235 95.0356 39.539V41.0818H97.1764C97.6488 41.0818 98.1869 41.1834 98.1869 42.2359V42.8936C98.1869 43.8623 97.6069 43.9461 97.1764 43.9461H94.9938C94.9938 45.2437 94.9758 46.607 94.9758 48.0063C94.9758 48.8913 95.3645 49.3457 96.1299 49.3457C96.5186 49.3457 96.8714 49.262 97.1584 49.2022C97.6727 49.0767 98.0255 49.1185 98.1869 49.7763L98.3902 50.7031C98.5338 51.3609 98.3304 51.5881 97.7086 51.7735C97.1106 51.9589 96.0582 52.1442 95.1134 52.1442C92.7454 52.1442 91.5076 50.9902 91.5076 48.8494C91.5076 47.0137 91.4657 45.429 91.4239 43.9461H90.9515C90.5209 43.9461 89.9409 43.8623 89.9409 42.8936V42.2359C89.9409 41.1834 90.4791 41.0818 90.9515 41.0818H91.4059V41.0878Z" fill="white"/>
<path d="M102.923 47.7791C103.252 49.2621 104.203 49.5132 105.375 49.5132C106.469 49.5132 106.983 49.3039 107.91 48.9751C108.448 48.7897 108.693 48.8316 108.921 49.4295L109.273 50.4162C109.417 50.9125 109.297 51.0979 108.699 51.343C107.796 51.7736 106.618 52.1443 105.01 52.1443C101.488 52.1443 99.2812 50.3325 99.2812 46.3978C99.2812 42.4632 101.422 40.8726 104.723 40.8726C107.671 40.8726 109.608 42.2539 109.608 45.7759C109.608 47.0317 109.094 47.7731 107.755 47.7731H102.935L102.923 47.7791ZM102.803 45.6204H106.577C106.535 43.994 105.811 43.4558 104.699 43.4558C103.688 43.4558 102.965 44.0298 102.803 45.6204Z" fill="white"/>
<path d="M114.835 44.0116V49.9435C114.835 51.863 114.691 51.9407 112.813 51.9407C111.432 51.9407 111.307 51.8391 111.307 49.9435V44.0116C111.307 42.6543 111.187 38.4505 111.187 37.7449C111.187 36.6506 111.205 36.5908 113.244 36.5908C114.853 36.5908 114.912 36.6327 114.912 38.4266C114.912 40.2205 114.829 42.1759 114.829 44.0116" fill="white"/>
<path d="M116.79 42.2358C116.79 41.1415 116.808 41.0817 118.847 41.0817C120.431 41.0817 120.497 41.1236 120.497 42.9175C120.497 44.7114 120.431 46.6667 120.431 48.5025V49.9436C120.431 51.8631 120.27 51.9409 118.41 51.9409C117.005 51.9409 116.903 51.8392 116.903 49.9436V48.5025C116.903 47.1451 116.778 42.9414 116.778 42.2358M116.808 38.5523C116.808 36.7584 117.489 36.573 118.763 36.573C120.372 36.573 120.575 36.7344 120.575 37.8706V38.343C120.575 40.1548 119.875 40.3223 118.596 40.3223C116.987 40.3223 116.802 40.1548 116.802 39.0247V38.5523H116.808Z" fill="white"/>
<path d="M125.795 47.7791C126.124 49.2621 127.075 49.5132 128.247 49.5132C129.341 49.5132 129.855 49.3039 130.782 48.9751C131.32 48.7897 131.565 48.8316 131.793 49.4295L132.145 50.4162C132.289 50.9125 132.163 51.0979 131.571 51.343C130.668 51.7736 129.49 52.1443 127.882 52.1443C124.36 52.1443 122.153 50.3325 122.153 46.3978C122.153 42.4632 124.3 40.8726 127.595 40.8726C130.543 40.8726 132.48 42.2539 132.48 45.7759C132.48 47.0317 131.966 47.7731 130.627 47.7731H125.801L125.795 47.7791ZM125.669 45.6204H129.443C129.401 43.994 128.677 43.4558 127.565 43.4558C126.554 43.4558 125.831 44.0298 125.669 45.6204Z" fill="white"/>
<path d="M137.761 43.1029C138.52 41.602 139.902 40.8784 141.056 40.8784C141.468 40.8784 141.857 40.9023 142.126 40.9801C142.622 41.1655 142.682 41.4345 142.581 41.9667L142.311 43.3062C142.186 43.8623 142.024 44.0297 141.361 43.9042C141.074 43.8623 140.703 43.8025 140.392 43.8025C139.011 43.8025 137.731 44.6277 137.671 48.2753V49.8839C137.671 51.8811 137.546 51.9469 135.65 51.9469C134.251 51.9469 134.143 51.8213 134.143 49.8839V48.5026C134.143 47.1452 134.018 42.9414 134.018 42.2358C134.018 41.1415 134.059 41.0817 136.099 41.0817C137.683 41.0817 137.749 41.1236 137.749 42.9175V43.1029H137.761Z" fill="white"/>
</g>
</svg>
